<svg width="14" height="24" viewBox="0 0 14 24" fill="none" xmlns="http://www.w3.org/2000/svg">
<path d="M1.81178 1.033C2.02008 1.033 2.17911 1.09583 2.34038 1.25695L12.5553 11.4719C12.6667 11.5833 12.7187 11.67 12.743 11.7281V11.7302C12.7735 11.8036 12.7914 11.8858 12.7914 11.9864C12.7914 12.087 12.7735 12.1691 12.743 12.2426V12.2446C12.7187 12.3027 12.6667 12.3895 12.5553 12.5009L2.28994 22.7663C2.12927 22.9269 1.99056 22.9721 1.82388 22.966C1.62962 22.9588 1.46256 22.8929 1.28519 22.7158C1.12379 22.5544 1.05923 22.3957 1.05922 22.1872C1.05922 21.9787 1.12379 21.82 1.28519 21.6586L10.9574 11.9864L1.23274 2.2617C1.07228 2.10117 1.02695 1.96418 1.033 1.79765C1.04012 1.6029 1.1074 1.43473 1.28519 1.25695C1.44618 1.09619 1.60396 1.03315 1.81178 1.033Z" fill="#0D0B00" stroke="#0D0B00"/>
</svg>
