<svg width="14" height="24" viewBox="0 0 14 24" fill="none" xmlns="http://www.w3.org/2000/svg">
<path d="M1.81185 1.03304C2.02016 1.03304 2.1792 1.09587 2.34048 1.257L12.5559 11.4724C12.6672 11.5838 12.7192 11.6705 12.7435 11.7286V11.7306C12.774 11.8041 12.7919 11.8863 12.7919 11.9869C12.7919 12.0875 12.774 12.1697 12.7435 12.2431V12.2451C12.7192 12.3033 12.6672 12.39 12.5559 12.5014L2.29004 22.7672C2.12936 22.9279 1.99064 22.9731 1.82396 22.967C1.62969 22.9597 1.46262 22.8939 1.28525 22.7168C1.12384 22.5554 1.05927 22.3966 1.05927 22.1881C1.05927 21.9797 1.12383 21.8209 1.28525 21.6595L10.9579 11.9869L1.23279 2.26179C1.07232 2.10126 1.02699 1.96426 1.03304 1.79773C1.04016 1.60297 1.10745 1.4348 1.28525 1.257C1.44625 1.09624 1.60403 1.0332 1.81185 1.03304Z" fill="#0D0B00" stroke="#0D0B00"/>
</svg>
