<svg width="82" height="82" viewBox="0 0 82 82" fill="none" xmlns="http://www.w3.org/2000/svg">
<path d="M26.2304 57.9299L46.8899 51.7006C48.0308 51.3493 49.0091 50.7658 49.8248 49.95C50.6406 49.1342 51.2241 48.1559 51.5755 47.0151L57.8047 26.3556C58.0221 25.7095 57.8841 25.1333 57.3908 24.6272C56.8967 24.1217 56.3145 23.9777 55.6442 24.1951L34.9847 30.4243C33.8438 30.7757 32.8655 31.3592 32.0498 32.175C31.234 32.9907 30.6505 33.969 30.2991 35.1099L24.0699 55.7693C23.8525 56.4155 23.9905 56.9916 24.4838 57.4978C24.9779 58.0032 25.5601 58.1473 26.2304 57.9299ZM40.9585 44.688C39.9462 44.688 39.0854 44.3235 38.3759 43.5946C37.6665 42.865 37.3118 41.9943 37.3118 40.9827C37.3118 39.9704 37.6763 39.1096 38.4052 38.4002C39.1348 37.6907 40.0054 37.336 41.0171 37.336C42.0294 37.336 42.8902 37.7005 43.5996 38.4294C44.309 39.159 44.6637 40.0297 44.6637 41.0413C44.6637 42.0536 44.2993 42.9144 43.5703 43.6238C42.8407 44.3332 41.9701 44.688 40.9585 44.688ZM41.0181 81.9998C35.3508 81.9998 30.0323 80.9269 25.0623 78.7812C20.0924 76.6354 15.7457 73.7009 12.0223 69.9774C8.29892 66.254 5.36435 61.906 3.21861 56.9334C1.07287 51.9608 0 46.6378 0 40.9645C0 35.2919 1.07287 29.968 3.21861 24.9927C5.36435 20.018 8.29757 15.6855 12.0183 11.9951C15.739 8.30397 20.0863 5.38218 25.0603 3.22971C30.0343 1.07657 35.3586 0 41.0332 0C46.7072 0 52.0328 1.07589 57.0101 3.22769C61.9868 5.37949 66.3197 8.29959 70.0088 11.988C73.6985 15.6764 76.6193 20.0137 78.7711 24.9997C80.9235 29.9858 81.9998 35.3141 81.9998 40.9847C81.9998 46.6547 80.9232 51.9742 78.7701 56.9435C76.6176 61.9134 73.6958 66.253 70.0047 69.9623C66.3143 73.6709 61.9774 76.6045 56.994 78.763C52.0106 80.9208 46.6853 81.9998 41.0181 81.9998ZM41.0322 75.1214C50.5278 75.1214 58.5791 71.8028 65.1859 65.1657C71.7934 58.5286 75.0971 50.4625 75.0971 40.9676C75.0971 31.4719 71.7951 23.4207 65.1909 16.8139C58.5868 10.2064 50.5369 6.90264 41.0413 6.90264C31.5457 6.90264 23.4779 10.2047 16.8381 16.8088C10.1983 23.413 6.87841 31.4629 6.87841 40.9585C6.87841 50.4541 10.197 58.5218 16.8341 65.1617C23.4712 71.8015 31.5372 75.1214 41.0322 75.1214Z" fill="#0D0B00"/>
</svg>
