<svg width="31" height="19" viewBox="0 0 31 19" fill="none" xmlns="http://www.w3.org/2000/svg">
<path fill-rule="evenodd" clip-rule="evenodd" d="M9.9533 17.7949C11.3296 18.2754 13.4782 18.8347 16.264 19.0002L16.72 19C25.308 19 30.932 13.68 30.932 7.29598C30.932 3.19199 27.74 0 23.2559 0C17.252 0 13.072 4.10399 10.944 12.236C8.28401 10.792 6.46002 8.20799 5.54801 4.94C5.092 3.34399 4.10401 2.35599 2.736 2.35599C1.06401 2.35599 0 3.648 0 5.39599C0 10.564 4.02801 15.504 9.956 17.784L9.9533 17.7949ZM17.176 13.452C18.3159 8.20799 20.14 5.7 22.572 5.7C23.864 5.7 24.6999 6.46 24.6999 7.828C24.6999 10.336 22.0399 13.3 17.176 13.452Z" fill="#0D0B00"/>
</svg>
