<svg width="39" height="50" viewBox="0 0 39 50" fill="none" xmlns="http://www.w3.org/2000/svg">
<path d="M34.2275 11.5582L34.1529 11.6328C34.6749 10.216 35.5697 9.61951 36.4645 9.61951C37.7323 9.61951 38.9999 10.738 38.9999 12.1548C38.9999 12.5276 38.9254 12.8259 38.7762 13.1987C35.8681 20.2829 31.5429 28.5602 24.608 33.4072L24.459 34.8986C23.6386 43.847 19.09 49.5142 13.348 49.5142C9.02285 49.5142 6.48751 46.5314 6.48751 43.0267C6.48751 36.6882 12.975 34.3766 19.0153 30.4991C19.1644 28.933 19.239 27.1434 19.3135 25.1299C16.3307 28.4109 13.1243 29.7533 10.2906 29.7533C4.62327 29.7533 0 25.1299 0 18.0459C0 7.15861 7.15861 0 15.1376 0H15.2122C20.6559 0 26.4723 2.9081 26.4723 8.12804C26.4723 9.84321 25.7265 19.1644 25.1301 26.3976C29.1567 22.5945 32.5124 16.4053 34.2275 11.5582ZM11.1108 24.3843C13.87 24.3843 17.5985 22.6692 19.9101 14.2428C20.2829 12.3785 20.5066 10.738 20.4322 8.79914C19.9848 6.78584 18.2696 5.5927 15.8087 5.5927C10.738 5.5927 5.89104 10.4397 5.89104 17.8222C5.89104 22.2964 7.97898 24.3843 11.1108 24.3843ZM13.9445 44.0707H14.0191C15.585 44.0707 17.3002 43.0267 18.4187 36.3155C15.1376 38.2541 12.0802 40.193 12.0802 42.5046C12.0802 43.4741 12.826 44.0707 13.9445 44.0707Z" fill="#0D0B00"/>
</svg>
