<svg width="44" height="33" viewBox="0 0 44 33" fill="none" xmlns="http://www.w3.org/2000/svg">
<path d="M41.6522 11.5471C40.5919 11.5471 39.6831 12.0772 39.0772 13.5161C37.1084 18.5142 33.0187 26.9961 28.8535 26.9961C26.2308 26.9961 24.2013 26.403 22.1504 25.8036C20.056 25.1915 17.9394 24.5727 15.1462 24.5727C14.1617 24.5727 12.7986 24.7243 11.5111 24.9515C15.3897 19.6626 16.8386 13.2573 18.2426 1.14996C15.599 0.981661 13.4486 0.493276 11.8812 0C10.2071 15.3555 8.30605 21.2105 1.36316 26.9961C0.45438 27.7534 0 28.8137 0 29.8741C0 31.5401 1.4389 32.979 3.25646 32.979C3.8623 32.979 4.54386 32.7518 5.22544 32.4488C9.08775 30.707 11.4354 30.2526 14.3132 30.2526C16.1432 30.2526 18.333 30.7761 20.6775 31.3362C23.3779 31.9816 26.2836 32.676 29.0809 32.676C35.2149 32.676 39.2288 26.6933 43.6968 15.1063C43.9242 14.7278 43.9998 14.2734 43.9998 13.8946C43.9998 12.4558 42.8639 11.5471 41.6522 11.5471Z" fill="#0D0B00"/>
</svg>
