<svg width="38" height="32" viewBox="0 0 38 32" fill="none" xmlns="http://www.w3.org/2000/svg">
<path d="M32.9693 12.4568L32.8948 12.5314C33.417 11.1142 34.4612 10.592 35.3562 10.592C36.6244 10.592 37.7432 11.5617 37.7432 12.979C37.7432 13.2774 37.7432 13.6503 37.5941 14.0978C34.9834 20.8111 29.4635 24.2423 24.093 24.7644C21.6315 28.9415 17.6036 31.9998 11.8599 31.9998C3.6549 31.9998 0 25.5104 0 18.4242C0 9.69694 5.51986 0 14.7691 0C16.783 0 18.4986 0.44773 19.9159 1.04437C24.0929 2.61072 26.7783 8.05594 26.7783 13.874C26.7783 15.7388 26.629 17.6036 26.1815 19.3939C28.9415 18.4242 31.552 16.1863 32.9693 12.4568ZM17.3798 6.11651V6.04205C15.7388 6.04205 14.7691 8.20504 14.7691 10.8158C14.7691 14.62 16.8576 18.1258 20.1396 19.3939C20.6618 17.7529 20.8856 15.8881 20.8856 13.7249C20.8856 9.54783 19.6175 6.11651 17.3798 6.11651ZM11.9346 26.5546C14.0231 26.5546 16.1117 25.6595 17.7527 23.7947C12.9043 21.6315 9.84605 16.5594 9.84605 11.7108C9.84605 10.0698 10.1445 8.35435 10.592 6.86245C7.60841 9.32407 5.89275 14.1724 5.89275 18.4242C5.89275 23.9438 8.50346 26.5546 11.9346 26.5546Z" fill="#0D0B00"/>
</svg>
