<svg width="83" height="37" viewBox="0 0 83 37" fill="none" xmlns="http://www.w3.org/2000/svg">
<path d="M71.3378 30.0357C68.0621 30.0357 65.3035 28.8897 63.062 26.5978C60.8199 24.3065 59.6988 21.5233 59.6988 18.2483C59.6988 14.9726 60.8199 12.1931 63.062 9.90994C65.3035 7.62608 68.0621 6.48416 71.3378 6.48416C74.5456 6.48416 77.2914 7.62608 79.5752 9.90994C81.8584 12.1931 83 14.9726 83 18.2483C83 21.5233 81.8584 24.3065 79.5752 26.5978C77.2914 28.8897 74.5456 30.0357 71.3378 30.0357ZM35.1451 21.8114H3.56306C2.5759 21.8114 1.7351 21.4685 1.04066 20.7828C0.346885 20.0964 0 19.2516 0 18.2483C0 17.2605 0.346885 16.4197 1.04066 15.7259C1.7351 15.0315 2.5759 14.6842 3.56306 14.6842H35.1451L26.4342 5.89671C25.7479 5.19419 25.4047 4.383 25.4047 3.46313C25.4047 2.54259 25.7398 1.73947 26.41 1.05378C27.1119 0.351259 27.948 0 28.9183 0C29.8879 0 30.716 0.351259 31.4023 1.05378L46.0623 15.8389C46.748 16.5408 47.0909 17.3479 47.0909 18.2604C47.0909 19.1722 46.748 19.9713 46.0623 20.6576L31.3014 35.567C30.5989 36.2695 29.7836 36.6207 28.8557 36.6207C27.9271 36.6207 27.1199 36.2695 26.4342 35.567C25.8152 34.8813 25.5016 34.0822 25.4935 33.1697C25.4854 32.2579 25.7909 31.4508 26.41 30.7483L35.1451 21.8114Z" fill="#0D0B00"/>
</svg>
